<svg width="788" height="296" viewBox="0 0 788 296" fill="none" xmlns="http://www.w3.org/2000/svg">
<g clip-path="url(#clip0_24_344)">
<path d="M330 132C382.255 81.6949 410.134 83.6481 458 132" stroke="currentColor" stroke-width="35"/>
<circle cx="205" cy="148" r="130.5" stroke="currentColor" stroke-width="35"/>
<path d="M27.962 130.5C18.297 130.5 10.462 138.335 10.462 148C10.462 157.665 18.297 165.5 27.962 165.5V130.5ZM86.038 130.5H27.962V165.5H86.038V130.5Z" fill="currentColor"/>
<circle cx="148" cy="148" r="130.5" transform="matrix(-1 0 0 1 731 0)" stroke="currentColor" stroke-width="35"/>
<path d="M760.038 130.5C769.703 130.5 777.538 138.335 777.538 148C777.538 157.665 769.703 165.5 760.038 165.5V130.5ZM701.962 130.5H760.038V165.5H701.962V130.5Z" fill="currentColor"/>
</g>
<defs>
<clipPath id="clip0_24_344">
<rect width="788" height="296" rx="130" fill="currentColor"/>
</clipPath>
</defs>
</svg>
